<svg width="875" height="293" viewBox="0 0 875 293" fill="none" xmlns="http://www.w3.org/2000/svg">
<path d="M158.168 220.052C151.355 220.052 146.391 217.911 143.276 213.628C140.161 209.54 138.604 204.576 138.604 198.736C138.604 193.869 139.285 189.003 140.648 184.136C142.205 179.269 143.665 174.5 145.028 169.828C146.585 165.156 147.364 160.971 147.364 157.272C147.364 153.379 146.488 150.653 144.736 149.096C142.984 147.539 141.037 146.76 138.896 146.76C134.029 146.76 128.676 150.556 122.836 158.148C117.191 165.74 109.793 176.447 100.644 190.268C97.5293 194.94 94.9013 199.709 92.76 204.576C90.6187 209.248 88.5747 213.531 86.628 217.424C85.0707 217.424 83.124 217.229 80.788 216.84C78.452 216.451 76.3107 215.769 74.364 214.796C72.612 214.017 71.736 212.947 71.736 211.584C71.736 210.221 72.612 207.009 74.364 201.948C76.3107 196.692 78.452 190.657 80.788 183.844C83.3187 176.836 85.46 169.828 87.212 162.82C89.1587 155.617 90.132 149.485 90.132 144.424C90.132 141.115 89.548 138.487 88.38 136.54C87.4067 134.399 85.5573 133.328 82.832 133.328C78.5493 133.328 73.3907 135.956 67.356 141.212C61.3213 146.273 55.092 152.989 48.668 161.36C42.244 169.731 36.112 178.977 30.272 189.1C24.6267 199.028 20.052 208.956 16.548 218.884C14.796 218.884 12.6547 218.592 10.124 218.008C7.59333 217.424 5.452 216.645 3.7 215.672C1.75333 214.699 0.78 213.725 0.78 212.752C0.78 211.584 1.85067 208.177 3.992 202.532C5.93867 196.692 8.27467 189.781 11 181.8C13.5307 173.624 15.7693 165.351 17.716 156.98C19.8573 148.609 20.928 141.212 20.928 134.788C22.096 133.425 23.9453 132.063 26.476 130.7C29.0067 129.337 31.6347 128.656 34.36 128.656C37.0853 128.656 39.032 129.337 40.2 130.7C41.5627 132.063 42.244 133.912 42.244 136.248C42.244 138.779 41.4653 143.159 39.908 149.388C38.5453 155.423 36.7933 162.139 34.652 169.536C38.5453 163.307 42.9253 156.98 47.792 150.556C52.8533 143.937 58.1093 137.903 63.56 132.452C69.0107 127.001 74.4613 122.621 79.912 119.312C85.5573 115.808 91.008 114.056 96.264 114.056C102.299 114.056 106.387 116.295 108.528 120.772C110.864 125.055 112.032 130.213 112.032 136.248C112.032 141.115 111.448 146.273 110.28 151.724C109.307 156.98 108.139 161.944 106.776 166.616C105.413 171.093 104.148 174.695 102.98 177.42C107.068 170.023 111.545 162.917 116.412 156.104C121.473 149.096 126.924 143.451 132.764 139.168C138.604 134.691 144.833 132.452 151.452 132.452C157.681 132.452 161.964 134.301 164.3 138C166.831 141.699 168.096 146.079 168.096 151.14C168.096 156.201 167.22 161.749 165.468 167.784C163.716 173.819 161.867 179.659 159.92 185.304C158.168 190.949 157.292 195.816 157.292 199.904C157.292 202.435 157.876 204.771 159.044 206.912C160.407 208.859 162.743 209.832 166.052 209.832C171.503 209.832 176.564 207.399 181.236 202.532C186.103 197.471 190.58 191.436 194.668 184.428C198.756 177.225 202.26 170.315 205.18 163.696L208.684 167.784C205.569 175.96 201.579 184.136 196.712 192.312C191.845 200.293 186.103 206.912 179.484 212.168C173.06 217.424 165.955 220.052 158.168 220.052ZM219.921 220.344C211.551 220.344 205.613 217.716 202.109 212.46C198.605 207.399 196.853 201.169 196.853 193.772C196.853 187.737 197.827 181.508 199.773 175.084C201.72 168.66 204.251 162.625 207.365 156.98C210.675 151.335 214.276 146.76 218.169 143.256C222.257 139.752 226.345 138 230.433 138C231.407 138 232.38 138.195 233.353 138.584C234.521 138.779 235.592 139.071 236.565 139.46C234.813 141.017 232.672 143.937 230.141 148.22C227.805 152.308 225.567 157.077 223.425 162.528C221.284 167.784 219.435 173.04 217.877 178.296C216.515 183.552 215.833 188.029 215.833 191.728C215.833 197.568 216.807 201.851 218.753 204.576C220.7 207.107 223.231 208.372 226.345 208.372C230.433 208.372 235.3 206.231 240.945 201.948C246.591 197.471 252.139 191.825 257.589 185.012C252.139 180.535 247.856 174.695 244.741 167.492C241.821 160.095 240.361 152.6 240.361 145.008C240.361 138.584 241.432 132.549 243.573 126.904C245.909 121.259 249.219 116.781 253.501 113.472C257.784 109.968 262.943 108.216 268.977 108.216C276.959 108.216 282.312 110.357 285.037 114.64C287.763 118.923 289.125 124.276 289.125 130.7C289.125 138.292 287.276 146.76 283.577 156.104C279.879 165.253 275.207 174.111 269.561 182.676C273.065 184.623 276.764 185.596 280.657 185.596C283.772 185.596 287.276 185.012 291.169 183.844C295.063 182.481 298.859 180.243 302.557 177.128C306.451 174.013 309.565 169.828 311.901 164.572L315.405 167.492C311.512 176.641 305.964 183.163 298.761 187.056C291.753 190.755 285.037 192.604 278.613 192.604C276.083 192.604 273.649 192.409 271.313 192.02C268.977 191.436 266.739 190.657 264.597 189.684C257.979 198.444 250.679 205.744 242.697 211.584C234.911 217.424 227.319 220.344 219.921 220.344ZM262.845 177.42C267.712 170.217 271.703 162.723 274.817 154.936C278.127 146.955 279.781 139.46 279.781 132.452C279.781 126.807 278.905 122.719 277.153 120.188C275.596 117.463 273.552 116.1 271.021 116.1C267.128 116.1 263.137 118.923 259.049 124.568C254.961 130.213 252.917 137.319 252.917 145.884C252.917 151.529 253.696 157.272 255.253 163.112C257.005 168.757 259.536 173.527 262.845 177.42Z" fill="#FB1E4E"/>
<path d="M318.102 213.92C315.571 213.92 313.333 213.239 311.386 211.876C309.634 210.708 308.758 208.761 308.758 206.036C308.758 203.895 309.634 201.948 311.386 200.196C313.138 198.249 315.279 196.789 317.81 195.816C320.535 194.648 323.163 194.064 325.694 194.064C328.03 194.064 329.879 194.551 331.242 195.524C332.605 196.497 333.286 198.347 333.286 201.072C333.286 203.019 332.507 204.965 330.95 206.912C329.587 208.859 327.738 210.513 325.402 211.876C323.066 213.239 320.633 213.92 318.102 213.92ZM382.887 224.724C376.852 224.724 371.791 222.68 367.703 218.592C363.42 214.699 361.279 208.664 361.279 200.488C361.279 193.48 362.836 185.985 365.951 178.004C369.066 169.828 373.348 161.847 378.799 154.06C384.25 146.079 390.382 138.876 397.195 132.452C404.203 125.833 411.503 120.577 419.095 116.684C426.882 112.791 434.571 110.844 442.163 110.844C449.755 110.844 456.082 112.888 461.143 116.976C466.204 120.869 468.735 126.125 468.735 132.744C468.735 137.611 467.372 140.92 464.647 142.672C462.116 144.424 458.71 145.3 454.427 145.3C454.816 143.743 455.108 142.088 455.303 140.336C455.692 138.389 455.887 136.637 455.887 135.08C455.887 130.603 454.816 126.807 452.675 123.692C450.534 120.383 446.835 118.728 441.579 118.728C436.128 118.728 430.58 120.675 424.935 124.568C419.29 128.267 413.839 133.328 408.583 139.752C403.327 145.981 398.655 152.795 394.567 160.192C390.479 167.589 387.267 174.889 384.931 182.092C382.595 189.295 381.427 195.719 381.427 201.364C381.427 208.956 384.055 212.752 389.311 212.752C393.788 212.752 398.655 210.708 403.911 206.62C409.167 202.337 414.52 196.984 419.971 190.56C425.616 183.941 430.97 177.128 436.031 170.12C441.092 163.112 445.57 156.688 449.463 150.848C450.242 149.68 450.728 149.096 450.923 149.096C452.091 149.291 453.551 149.68 455.303 150.264C457.25 150.848 458.904 151.627 460.267 152.6C461.63 153.573 462.311 154.839 462.311 156.396C462.311 158.148 461.435 160.581 459.683 163.696C457.931 166.616 455.984 170.023 453.843 173.916C451.702 177.809 449.755 181.8 448.003 185.888C446.251 189.781 445.375 193.48 445.375 196.984C445.375 199.904 446.154 202.824 447.711 205.744C449.268 208.469 451.799 209.832 455.303 209.832C460.559 209.832 467.47 206.036 476.035 198.444C484.6 190.657 493.263 179.075 502.023 163.696L504.943 166.616C500.855 177.128 495.599 186.375 489.175 194.356C482.751 202.337 475.84 208.567 468.443 213.044C461.24 217.521 454.135 219.76 447.127 219.76C439.924 219.76 434.571 217.619 431.067 213.336C427.758 209.053 426.103 204.381 426.103 199.32C426.103 198.152 426.2 196.887 426.395 195.524C426.59 193.967 426.784 192.409 426.979 190.852C418.608 202.143 410.919 210.611 403.911 216.256C397.098 221.901 390.09 224.724 382.887 224.724ZM590.367 216.84C583.553 216.84 578.395 215.088 574.891 211.584C571.581 208.08 569.927 203.603 569.927 198.152C569.927 194.064 570.608 189.781 571.971 185.304C573.528 180.827 574.988 176.252 576.351 171.58C577.713 166.713 578.395 162.041 578.395 157.564C578.395 152.113 577.227 148.415 574.891 146.468C572.749 144.327 570.024 143.256 566.715 143.256C560.68 143.256 554.548 145.787 548.319 150.848C542.089 155.715 536.055 162.041 530.215 169.828C524.375 177.42 518.924 185.304 513.863 193.48C508.801 201.656 504.324 208.956 500.431 215.38C497.316 215.38 494.396 214.796 491.671 213.628C488.751 212.655 486.512 211.097 484.955 208.956C484.955 207.983 486.025 204.965 488.167 199.904C490.113 194.843 492.449 188.613 495.175 181.216C497.9 173.819 500.333 166.227 502.475 158.44C504.616 150.653 505.687 143.548 505.687 137.124C506.855 135.761 508.704 134.399 511.235 133.036C513.765 131.673 516.393 130.992 519.119 130.992C524.375 130.992 527.003 133.523 527.003 138.584C527.003 141.699 526.127 146.955 524.375 154.352C522.623 161.555 520.384 169.147 517.659 177.128C522.915 169.147 528.755 161.263 535.179 153.476C541.797 145.495 548.805 138.876 556.203 133.62C563.6 128.364 570.997 125.736 578.395 125.736C585.987 125.736 591.437 128.461 594.747 133.912C598.251 139.363 600.003 145.397 600.003 152.016C600.003 158.051 599.029 163.696 597.083 168.952C595.136 174.013 593.092 178.977 590.951 183.844C589.004 188.516 588.031 193.285 588.031 198.152C588.031 202.24 588.809 205.16 590.367 206.912C592.119 208.469 594.26 209.248 596.791 209.248C601.657 209.248 606.524 207.009 611.391 202.532C616.257 197.86 620.929 192.02 625.407 185.012C630.079 178.004 634.167 170.899 637.671 163.696L640.883 167.492C636.795 177.031 632.22 185.499 627.159 192.896C622.097 200.293 616.549 206.133 610.515 210.416C604.48 214.699 597.764 216.84 590.367 216.84ZM646.086 224.724C640.052 224.724 634.99 222.68 630.902 218.592C626.62 214.699 624.478 208.664 624.478 200.488C624.478 193.48 626.036 185.985 629.15 178.004C632.265 169.828 636.548 161.847 641.998 154.06C647.449 146.079 653.581 138.876 660.394 132.452C667.402 125.833 674.702 120.577 682.294 116.684C690.081 112.791 697.77 110.844 705.362 110.844C712.954 110.844 719.281 112.888 724.342 116.976C729.404 120.869 731.934 126.125 731.934 132.744C731.934 137.611 730.572 140.92 727.846 142.672C725.316 144.424 721.909 145.3 717.626 145.3C718.016 143.743 718.308 142.088 718.502 140.336C718.892 138.389 719.086 136.637 719.086 135.08C719.086 130.603 718.016 126.807 715.874 123.692C713.733 120.383 710.034 118.728 704.778 118.728C699.328 118.728 693.78 120.675 688.134 124.568C682.489 128.267 677.038 133.328 671.782 139.752C666.526 145.981 661.854 152.795 657.766 160.192C653.678 167.589 650.466 174.889 648.13 182.092C645.794 189.295 644.626 195.719 644.626 201.364C644.626 208.956 647.254 212.752 652.51 212.752C656.988 212.752 661.854 210.708 667.11 206.62C672.366 202.337 677.72 196.984 683.17 190.56C688.816 183.941 694.169 177.128 699.23 170.12C704.292 163.112 708.769 156.688 712.662 150.848C713.441 149.68 713.928 149.096 714.122 149.096C715.29 149.291 716.75 149.68 718.502 150.264C720.449 150.848 722.104 151.627 723.466 152.6C724.829 153.573 725.51 154.839 725.51 156.396C725.51 158.148 724.634 160.581 722.882 163.696C721.13 166.616 719.184 170.023 717.042 173.916C714.901 177.809 712.954 181.8 711.202 185.888C709.45 189.781 708.574 193.48 708.574 196.984C708.574 199.904 709.353 202.824 710.91 205.744C712.468 208.469 714.998 209.832 718.502 209.832C723.758 209.832 730.669 206.036 739.234 198.444C747.8 190.657 756.462 179.075 765.222 163.696L768.142 166.616C764.054 177.128 758.798 186.375 752.374 194.356C745.95 202.337 739.04 208.567 731.642 213.044C724.44 217.521 717.334 219.76 710.326 219.76C703.124 219.76 697.77 217.619 694.266 213.336C690.957 209.053 689.302 204.381 689.302 199.32C689.302 198.152 689.4 196.887 689.594 195.524C689.789 193.967 689.984 192.409 690.178 190.852C681.808 202.143 674.118 210.611 667.11 216.256C660.297 221.901 653.289 224.724 646.086 224.724ZM755.454 292.76C753.507 292.76 751.269 292.079 748.738 290.716C746.207 289.548 744.066 287.115 742.314 283.416C740.367 279.717 739.394 274.267 739.394 267.064C739.394 258.499 740.854 247.305 743.774 233.484C746.694 219.857 750.685 204.771 755.746 188.224C760.807 171.677 766.647 154.741 773.266 137.416C779.885 119.896 786.99 103.057 794.582 86.9C802.369 70.548 810.253 55.948 818.234 43.1C826.41 30.0573 834.391 19.74 842.178 12.148C849.965 4.55599 857.362 0.759992 864.37 0.759992C868.458 0.759992 871.086 2.02533 872.254 4.55599C873.617 7.08666 874.298 10.104 874.298 13.608C874.298 21.9787 871.962 31.128 867.29 41.056C862.813 50.984 856.778 61.0093 849.186 71.132C841.594 81.06 833.223 90.5987 824.074 99.748C814.925 108.703 805.678 116.392 796.334 122.816C795.361 125.152 794.387 127.585 793.414 130.116C792.635 132.452 791.759 134.885 790.786 137.416C792.927 137.805 794.582 138.973 795.75 140.92C797.113 142.672 797.891 144.619 798.086 146.76C799.449 155.52 800.909 163.404 802.466 170.412C804.023 177.225 806.359 182.579 809.474 186.472C812.783 190.365 817.455 192.312 823.49 192.312C830.303 192.312 836.046 189.879 840.718 185.012C845.39 179.951 850.451 172.845 855.902 163.696L860.282 166.616C855.415 178.296 849.186 186.764 841.594 192.02C834.197 197.276 827.675 199.904 822.03 199.904C818.526 199.904 814.827 199.028 810.934 197.276C807.235 195.524 803.731 193.188 800.422 190.268C800.422 202.532 799.059 214.699 796.334 226.768C793.803 238.837 790.397 249.836 786.114 259.764C781.831 269.692 777.062 277.673 771.806 283.708C766.55 289.743 761.099 292.76 755.454 292.76ZM763.046 278.744C765.187 278.744 767.621 276.797 770.346 272.904C773.071 269.011 775.699 263.852 778.23 257.428C780.955 251.199 783.389 244.288 785.53 236.696C787.671 229.104 789.423 221.512 790.786 213.92C792.149 206.328 792.83 199.515 792.83 193.48C792.83 187.445 792.051 181.995 790.494 177.128C788.937 172.067 786.406 166.129 782.902 159.316C778.035 173.916 773.655 188.029 769.762 201.656C765.869 215.283 762.851 227.547 760.71 238.448C758.569 249.349 757.498 258.109 757.498 264.728C757.498 274.072 759.347 278.744 763.046 278.744ZM801.006 110.844C813.659 99.164 824.561 87.484 833.71 75.804C843.054 63.9293 850.257 53.4173 855.318 44.268C860.379 34.924 862.91 28.3053 862.91 24.412C862.91 21.6866 861.547 20.324 858.822 20.324C853.761 20.324 848.018 24.5093 841.594 32.88C835.17 41.056 828.454 51.9573 821.446 65.584C814.438 79.2107 807.625 94.2973 801.006 110.844Z" fill="white"/>
</svg>
